<?xml version="1.0" encoding="utf-8"?>
<!-- Generator: Adobe Illustrator 16.0.4, SVG Export Plug-In . SVG Version: 6.00 Build 0)  -->
<!DOCTYPE svg PUBLIC "-//W3C//DTD SVG 1.1//EN" "http://www.w3.org/Graphics/SVG/1.1/DTD/svg11.dtd">
<svg version="1.1" id="Layer_1" xmlns="http://www.w3.org/2000/svg" xmlns:xlink="http://www.w3.org/1999/xlink" x="0px" y="0px"
	 width="948.725px" height="217px" viewBox="0 0 948.725 217" enable-background="new 0 0 948.725 217" xml:space="preserve">
<g>
	<g>
		<path d="M311.463,91.894V54.093h-48.358v37.801h-15.38V0.652h15.38v39.625h48.358V0.652h15.381v91.242H311.463z"/>
		<path d="M439.984,46.272c0,26.07-21.116,46.272-48.358,46.272c-27.243,0-48.358-20.203-48.358-46.272
			c0-26.199,21.115-46.011,48.358-46.011C418.868,0.261,439.984,20.204,439.984,46.272z M358.91,46.272
			c0,18.118,14.989,32.456,32.846,32.456s32.456-14.338,32.456-32.456c0-18.118-14.598-32.195-32.456-32.195
			C373.769,14.078,358.91,28.155,358.91,46.272z"/>
		<path d="M497.598,64.261c-1.303,0.13-2.737,0.13-4.17,0.13H471.79v27.503h-15.38V0.652h37.019
			c23.331,0,36.755,11.34,36.755,31.153c0,14.599-6.776,24.896-18.899,29.588l20.466,30.5h-17.467L497.598,64.261z M493.428,50.574
			c14.076,0,22.159-5.996,22.159-18.379c0-11.991-8.083-17.727-22.159-17.727H471.79v36.106H493.428z"/>
		<path d="M550.648,91.894V0.652h15.383v91.242H550.648z"/>
		<path d="M603.697,78.077h56.181v13.817h-77.034v-11.08l55.654-66.346h-53.961V0.652h74.687v11.08L603.697,78.077z"/>
		<path d="M765.979,46.272c0,26.07-21.114,46.272-48.357,46.272s-48.359-20.203-48.359-46.272c0-26.199,21.116-46.011,48.359-46.011
			S765.979,20.204,765.979,46.272z M684.905,46.272c0,18.118,14.989,32.456,32.845,32.456c17.858,0,32.457-14.338,32.457-32.456
			c0-18.118-14.599-32.195-32.457-32.195C699.764,14.078,684.905,28.155,684.905,46.272z"/>
		<path d="M846.402,91.894L797.783,26.46v65.433h-15.378V0.652h15.118l48.879,65.563V0.652h15.122v91.242H846.402z"/>
		<path d="M947.552,9.385l-6.386,13.556c-9.908-5.996-19.814-8.473-26.723-8.473c-8.993,0-14.859,3.389-14.859,9.515
			c0,19.943,49.271,9.254,49.141,42.102c0,16.293-14.339,26.33-34.41,26.33c-14.339,0-27.893-5.866-37.28-14.468l6.649-13.295
			c9.384,8.604,21.115,13.295,30.892,13.295c10.686,0,17.075-4.041,17.075-11.079c0-20.334-49.271-8.994-49.271-41.45
			C882.379,9.776,895.806,0,915.618,0C927.479,0,939.079,3.78,947.552,9.385z"/>
	</g>
	<g>
		<path fill="#C4C4C4" d="M280.083,157.081c-0.228,0.381-0.475,0.666-0.742,0.856s-0.59,0.285-0.971,0.285
			c-0.431,0-0.939-0.215-1.522-0.646c-0.584-0.432-1.313-0.908-2.189-1.428s-1.929-0.996-3.16-1.428
			c-1.231-0.431-2.722-0.647-4.473-0.647c-1.649,0-3.103,0.223-4.359,0.667c-1.256,0.444-2.309,1.046-3.159,1.808
			c-0.851,0.761-1.491,1.656-1.922,2.684c-0.432,1.028-0.647,2.139-0.647,3.331c0,1.522,0.374,2.786,1.123,3.788
			c0.749,1.003,1.738,1.86,2.97,2.57c1.23,0.711,2.627,1.327,4.188,1.846c1.561,0.521,3.159,1.06,4.796,1.618
			c1.637,0.558,3.236,1.187,4.797,1.884c1.561,0.698,2.956,1.58,4.187,2.646c1.231,1.066,2.221,2.374,2.969,3.921
			c0.748,1.548,1.123,3.452,1.123,5.71c0,2.386-0.406,4.625-1.218,6.719s-1.999,3.915-3.56,5.463
			c-1.561,1.548-3.477,2.766-5.749,3.654c-2.271,0.888-4.853,1.333-7.746,1.333c-3.554,0-6.776-0.641-9.67-1.923
			c-2.893-1.281-5.367-3.013-7.423-5.196l2.131-3.502c0.203-0.279,0.451-0.514,0.743-0.704c0.292-0.191,0.615-0.285,0.97-0.285
			c0.33,0,0.705,0.133,1.123,0.399c0.419,0.267,0.895,0.603,1.428,1.009c0.533,0.406,1.142,0.85,1.827,1.332
			c0.686,0.483,1.466,0.927,2.341,1.333c0.876,0.406,1.872,0.742,2.989,1.009c1.116,0.266,2.373,0.399,3.769,0.399
			c1.751,0,3.312-0.241,4.683-0.723c1.37-0.482,2.531-1.162,3.482-2.037c0.952-0.875,1.681-1.923,2.189-3.141
			c0.507-1.218,0.762-2.575,0.762-4.073c0-1.649-0.375-3.001-1.123-4.054c-0.75-1.053-1.732-1.935-2.95-2.646
			s-2.614-1.313-4.188-1.808c-1.574-0.495-3.173-1.002-4.797-1.523c-1.625-0.52-3.223-1.123-4.796-1.808
			c-1.574-0.685-2.969-1.573-4.188-2.665c-1.218-1.09-2.202-2.455-2.95-4.092c-0.749-1.638-1.123-3.661-1.123-6.072
			c0-1.928,0.374-3.793,1.123-5.596c0.748-1.802,1.84-3.4,3.274-4.797c1.433-1.396,3.197-2.512,5.291-3.35
			c2.094-0.837,4.498-1.256,7.214-1.256c3.045,0,5.817,0.482,8.317,1.446c2.5,0.964,4.702,2.36,6.605,4.188L280.083,157.081z"/>
		<path fill="#C4C4C4" d="M318.494,171.395c-0.203,0.279-0.406,0.495-0.608,0.647c-0.204,0.152-0.482,0.228-0.838,0.228
			c-0.38,0-0.8-0.158-1.256-0.476c-0.457-0.317-1.022-0.666-1.694-1.047s-1.498-0.729-2.475-1.047
			c-0.977-0.317-2.176-0.476-3.597-0.476c-1.903,0-3.578,0.337-5.025,1.009c-1.447,0.673-2.659,1.644-3.636,2.912
			c-0.977,1.27-1.713,2.805-2.208,4.606c-0.495,1.803-0.742,3.82-0.742,6.053c0,2.335,0.266,4.41,0.799,6.224
			c0.533,1.815,1.288,3.337,2.265,4.568c0.977,1.232,2.157,2.17,3.541,2.817c1.383,0.647,2.937,0.971,4.664,0.971
			c1.649,0,3.007-0.196,4.073-0.59s1.947-0.832,2.646-1.313c0.698-0.481,1.281-0.92,1.75-1.313c0.47-0.393,0.933-0.59,1.39-0.59
			c0.558,0,0.99,0.216,1.295,0.647l1.903,2.475c-0.837,1.041-1.789,1.929-2.855,2.665c-1.066,0.736-2.214,1.351-3.445,1.846
			c-1.231,0.495-2.519,0.856-3.865,1.085c-1.345,0.229-2.715,0.343-4.111,0.343c-2.411,0-4.651-0.444-6.719-1.333
			c-2.068-0.888-3.863-2.175-5.386-3.864c-1.523-1.688-2.716-3.762-3.578-6.224c-0.864-2.461-1.295-5.266-1.295-8.413
			c0-2.867,0.4-5.52,1.199-7.957c0.799-2.436,1.967-4.536,3.502-6.3c1.535-1.763,3.426-3.141,5.672-4.13
			c2.247-0.989,4.828-1.484,7.747-1.484c2.716,0,5.107,0.438,7.176,1.313c2.068,0.875,3.902,2.113,5.501,3.711L318.494,171.395z"/>
		<path fill="#C4C4C4" d="M334.825,169.682c1.649-1.751,3.477-3.147,5.482-4.188c2.004-1.041,4.314-1.561,6.928-1.561
			c2.106,0,3.965,0.349,5.577,1.046c1.612,0.698,2.957,1.688,4.036,2.97c1.079,1.282,1.896,2.823,2.456,4.625
			c0.558,1.802,0.837,3.794,0.837,5.977v24.554h-6.814v-24.554c0-2.918-0.666-5.183-1.999-6.795
			c-1.333-1.611-3.356-2.417-6.072-2.417c-2.005,0-3.877,0.481-5.615,1.446c-1.739,0.965-3.344,2.271-4.816,3.921v28.398h-6.814
			v-56.074h6.814V169.682z"/>
		<path fill="#C4C4C4" d="M386.75,163.934c2.816,0,5.354,0.469,7.613,1.408c2.259,0.939,4.188,2.272,5.787,3.998
			c1.599,1.726,2.823,3.813,3.674,6.262c0.85,2.45,1.275,5.184,1.275,8.204c0,3.045-0.425,5.787-1.275,8.222
			c-0.851,2.437-2.075,4.518-3.674,6.244c-1.599,1.726-3.528,3.052-5.787,3.979c-2.259,0.925-4.797,1.39-7.613,1.39
			c-2.843,0-5.4-0.464-7.671-1.39c-2.272-0.926-4.207-2.252-5.805-3.979c-1.6-1.726-2.824-3.807-3.674-6.244
			c-0.851-2.436-1.276-5.177-1.276-8.222c0-3.02,0.425-5.754,1.276-8.204c0.85-2.449,2.074-4.536,3.674-6.262
			c1.599-1.726,3.533-3.058,5.805-3.998C381.35,164.403,383.907,163.934,386.75,163.934z M386.75,198.347
			c3.807,0,6.648-1.275,8.527-3.826c1.877-2.55,2.817-6.109,2.817-10.677c0-4.594-0.939-8.172-2.817-10.736
			c-1.879-2.563-4.721-3.845-8.527-3.845c-1.93,0-3.611,0.33-5.044,0.99c-1.434,0.661-2.626,1.612-3.578,2.855
			c-0.952,1.244-1.663,2.773-2.132,4.587c-0.47,1.815-0.705,3.865-0.705,6.149c0,4.568,0.945,8.127,2.836,10.677
			C380.018,197.071,382.892,198.347,386.75,198.347z"/>
		<path fill="#C4C4C4" d="M429.918,163.934c2.817,0,5.355,0.469,7.613,1.408c2.259,0.939,4.188,2.272,5.787,3.998
			s2.823,3.813,3.673,6.262c0.85,2.45,1.276,5.184,1.276,8.204c0,3.045-0.426,5.787-1.276,8.222
			c-0.85,2.437-2.074,4.518-3.673,6.244c-1.599,1.726-3.528,3.052-5.787,3.979c-2.258,0.925-4.796,1.39-7.613,1.39
			c-2.843,0-5.4-0.464-7.671-1.39c-2.272-0.926-4.206-2.252-5.806-3.979c-1.599-1.726-2.824-3.807-3.673-6.244
			c-0.85-2.436-1.275-5.177-1.275-8.222c0-3.02,0.425-5.754,1.275-8.204c0.85-2.449,2.075-4.536,3.673-6.262
			c1.6-1.726,3.534-3.058,5.806-3.998C424.518,164.403,427.075,163.934,429.918,163.934z M429.918,198.347
			c3.807,0,6.649-1.275,8.527-3.826c1.877-2.55,2.816-6.109,2.816-10.677c0-4.594-0.939-8.172-2.816-10.736
			c-1.878-2.563-4.721-3.845-8.527-3.845c-1.929,0-3.61,0.33-5.044,0.99c-1.434,0.661-2.626,1.612-3.578,2.855
			c-0.952,1.244-1.663,2.773-2.131,4.587c-0.471,1.815-0.705,3.865-0.705,6.149c0,4.568,0.945,8.127,2.836,10.677
			C423.186,197.071,426.06,198.347,429.918,198.347z"/>
		<path fill="#C4C4C4" d="M463.835,147.031v56.074h-6.776v-56.074H463.835z"/>
		<path fill="#C4C4C4" d="M505.52,203.639c-2.107,0-4.035-0.362-5.787-1.085c-1.752-0.724-3.262-1.771-4.531-3.14
			c-1.268-1.371-2.258-3.046-2.968-5.025c-0.71-1.98-1.066-4.238-1.066-6.776c0-3.248,0.507-6.306,1.522-9.174
			c1.015-2.868,2.411-5.375,4.187-7.519c1.776-2.145,3.865-3.838,6.263-5.082c2.398-1.243,4.98-1.866,7.747-1.866
			c2.105,0,4.035,0.362,5.786,1.085c1.75,0.724,3.261,1.771,4.529,3.14c1.27,1.371,2.259,3.046,2.97,5.025
			c0.71,1.98,1.066,4.226,1.066,6.738c0,3.224-0.508,6.269-1.523,9.136c-1.015,2.868-2.404,5.38-4.168,7.537
			c-1.764,2.158-3.851,3.864-6.263,5.121C510.874,203.01,508.286,203.639,505.52,203.639z M506.167,198.347
			c1.851,0,3.533-0.507,5.043-1.523c1.509-1.015,2.804-2.366,3.884-4.054c1.078-1.688,1.909-3.635,2.493-5.844
			c0.583-2.208,0.876-4.517,0.876-6.928c0-3.553-0.704-6.224-2.113-8.014c-1.409-1.789-3.433-2.684-6.073-2.684
			c-1.877,0-3.571,0.501-5.081,1.504s-2.798,2.341-3.864,4.016c-1.065,1.675-1.891,3.617-2.474,5.824
			c-0.583,2.208-0.876,4.518-0.876,6.929c0,3.553,0.699,6.237,2.094,8.051C501.472,197.439,503.501,198.347,506.167,198.347z"/>
		<path fill="#C4C4C4" d="M542.637,170.177l-3.845,31.672l-1.79,7.881c-0.279,0.913-0.69,1.617-1.236,2.113
			c-0.547,0.495-1.301,0.742-2.265,0.742h-2.628l5.102-42.293l-3.807-0.495c-0.457-0.126-0.818-0.317-1.085-0.571
			c-0.267-0.253-0.374-0.647-0.324-1.18l0.343-2.741h5.482l0.457-3.731c0.279-2.208,0.832-4.168,1.655-5.881
			c0.825-1.713,1.866-3.16,3.121-4.34c1.258-1.18,2.691-2.074,4.303-2.684s3.355-0.914,5.234-0.914c1.548,0,2.981,0.254,4.302,0.761
			l-0.646,3.502c-0.103,0.508-0.445,0.762-1.029,0.762s-1.319,0-2.207,0c-1.092,0-2.101,0.159-3.026,0.476
			c-0.927,0.318-1.745,0.832-2.455,1.542c-0.711,0.711-1.314,1.637-1.809,2.779c-0.495,1.142-0.845,2.538-1.048,4.187l-0.418,3.541
			h9.632l-0.647,4.873H542.637z"/>
		<path fill="#C4C4C4" d="M612.909,154.759h-17.662v48.346h-7.348v-48.346h-17.702v-6.205h42.712V154.759z"/>
		<path fill="#C4C4C4" d="M641.385,197.7c-0.838,1.015-1.841,1.897-3.007,2.646c-1.167,0.749-2.417,1.364-3.75,1.846
			c-1.333,0.482-2.71,0.844-4.13,1.084c-1.422,0.241-2.83,0.362-4.227,0.362c-2.664,0-5.12-0.452-7.366-1.352
			c-2.246-0.901-4.187-2.22-5.824-3.959c-1.637-1.738-2.911-3.889-3.825-6.453c-0.914-2.562-1.371-5.507-1.371-8.832
			c0-2.689,0.413-5.202,1.236-7.537c0.826-2.335,2.012-4.359,3.561-6.072c1.547-1.712,3.439-3.058,5.672-4.035
			s4.746-1.465,7.538-1.465c2.308,0,4.447,0.387,6.414,1.16c1.967,0.774,3.668,1.891,5.102,3.351
			c1.433,1.46,2.556,3.261,3.369,5.405c0.812,2.146,1.218,4.588,1.218,7.328c0,1.066-0.114,1.777-0.343,2.132
			c-0.228,0.355-0.66,0.534-1.295,0.534h-25.772c0.077,2.436,0.414,4.555,1.009,6.357c0.598,1.802,1.429,3.306,2.495,4.511
			c1.065,1.206,2.334,2.106,3.807,2.703c1.472,0.597,3.121,0.895,4.948,0.895c1.7,0,3.167-0.196,4.397-0.59
			c1.229-0.393,2.29-0.818,3.178-1.274c0.889-0.458,1.631-0.882,2.228-1.276c0.595-0.393,1.11-0.59,1.542-0.59
			c0.558,0,0.99,0.216,1.295,0.647L641.385,197.7z M635.904,179.618c0-1.574-0.223-3.014-0.667-4.321
			c-0.444-1.307-1.092-2.436-1.942-3.388c-0.851-0.952-1.884-1.688-3.103-2.208c-1.218-0.519-2.601-0.78-4.149-0.78
			c-3.249,0-5.818,0.946-7.708,2.836c-1.891,1.891-3.063,4.512-3.521,7.862H635.904z"/>
		<path fill="#C4C4C4" d="M677.131,171.395c-0.204,0.279-0.406,0.495-0.61,0.647c-0.203,0.152-0.481,0.228-0.837,0.228
			c-0.381,0-0.799-0.158-1.257-0.476c-0.456-0.317-1.021-0.666-1.693-1.047c-0.673-0.381-1.497-0.729-2.475-1.047
			c-0.977-0.317-2.177-0.476-3.597-0.476c-1.904,0-3.578,0.337-5.025,1.009c-1.446,0.673-2.658,1.644-3.635,2.912
			c-0.979,1.27-1.713,2.805-2.209,4.606c-0.494,1.803-0.741,3.82-0.741,6.053c0,2.335,0.266,4.41,0.799,6.224
			c0.533,1.815,1.288,3.337,2.265,4.568c0.977,1.232,2.158,2.17,3.54,2.817c1.384,0.647,2.938,0.971,4.664,0.971
			c1.649,0,3.008-0.196,4.073-0.59s1.947-0.832,2.646-1.313c0.697-0.481,1.28-0.92,1.751-1.313c0.468-0.393,0.932-0.59,1.389-0.59
			c0.558,0,0.989,0.216,1.295,0.647l1.903,2.475c-0.838,1.041-1.79,1.929-2.856,2.665c-1.065,0.736-2.214,1.351-3.444,1.846
			c-1.232,0.495-2.52,0.856-3.863,1.085c-1.346,0.229-2.717,0.343-4.111,0.343c-2.413,0-4.651-0.444-6.719-1.333
			c-2.069-0.888-3.864-2.175-5.388-3.864c-1.522-1.688-2.716-3.762-3.578-6.224c-0.863-2.461-1.294-5.266-1.294-8.413
			c0-2.867,0.399-5.52,1.198-7.957c0.8-2.436,1.967-4.536,3.503-6.3c1.535-1.763,3.426-3.141,5.672-4.13
			c2.246-0.989,4.827-1.484,7.746-1.484c2.716,0,5.108,0.438,7.176,1.313c2.068,0.875,3.902,2.113,5.502,3.711L677.131,171.395z"/>
		<path fill="#C4C4C4" d="M693.462,169.682c1.648-1.751,3.477-3.147,5.481-4.188c2.004-1.041,4.314-1.561,6.929-1.561
			c2.106,0,3.965,0.349,5.576,1.046c1.612,0.698,2.957,1.688,4.036,2.97c1.078,1.282,1.896,2.823,2.455,4.625
			c0.558,1.802,0.838,3.794,0.838,5.977v24.554h-6.814v-24.554c0-2.918-0.667-5.183-1.999-6.795
			c-1.332-1.611-3.356-2.417-6.071-2.417c-2.005,0-3.877,0.481-5.615,1.446c-1.739,0.965-3.344,2.271-4.815,3.921v28.398h-6.814
			v-56.074h6.814V169.682z"/>
		<path fill="#C4C4C4" d="M735.526,170.138c0.839-0.938,1.726-1.789,2.665-2.551c0.939-0.761,1.936-1.414,2.989-1.96
			c1.053-0.545,2.17-0.964,3.35-1.255c1.181-0.292,2.455-0.438,3.825-0.438c2.107,0,3.966,0.349,5.576,1.046
			c1.612,0.698,2.958,1.688,4.037,2.97c1.078,1.282,1.896,2.823,2.455,4.625c0.558,1.802,0.837,3.794,0.837,5.977v24.554h-6.813
			v-24.554c0-2.918-0.667-5.183-1.999-6.795c-1.333-1.611-3.356-2.417-6.071-2.417c-2.006,0-3.877,0.481-5.615,1.446
			c-1.739,0.965-3.345,2.271-4.815,3.921v28.398h-6.814v-38.562h4.073c0.964,0,1.562,0.469,1.79,1.408L735.526,170.138z"/>
		<path fill="#C4C4C4" d="M787.87,163.934c2.816,0,5.354,0.469,7.613,1.408c2.259,0.939,4.188,2.272,5.786,3.998
			s2.822,3.813,3.674,6.262c0.85,2.45,1.275,5.184,1.275,8.204c0,3.045-0.426,5.787-1.275,8.222
			c-0.852,2.437-2.075,4.518-3.674,6.244c-1.599,1.726-3.527,3.052-5.786,3.979c-2.259,0.925-4.797,1.39-7.613,1.39
			c-2.843,0-5.401-0.464-7.671-1.39c-2.271-0.926-4.207-2.252-5.806-3.979c-1.599-1.726-2.823-3.807-3.674-6.244
			c-0.851-2.436-1.274-5.177-1.274-8.222c0-3.02,0.424-5.754,1.274-8.204c0.851-2.449,2.075-4.536,3.674-6.262
			s3.534-3.058,5.806-3.998C782.469,164.403,785.027,163.934,787.87,163.934z M787.87,198.347c3.807,0,6.647-1.275,8.526-3.826
			c1.879-2.55,2.818-6.109,2.818-10.677c0-4.594-0.939-8.172-2.818-10.736c-1.879-2.563-4.72-3.845-8.526-3.845
			c-1.93,0-3.611,0.33-5.044,0.99c-1.436,0.661-2.627,1.612-3.578,2.855c-0.952,1.244-1.664,2.773-2.133,4.587
			c-0.47,1.815-0.704,3.865-0.704,6.149c0,4.568,0.945,8.127,2.837,10.677C781.137,197.071,784.012,198.347,787.87,198.347z"/>
		<path fill="#C4C4C4" d="M821.788,147.031v56.074h-6.777v-56.074H821.788z"/>
		<path fill="#C4C4C4" d="M849.006,163.934c2.816,0,5.354,0.469,7.613,1.408c2.26,0.939,4.188,2.272,5.786,3.998
			s2.823,3.813,3.675,6.262c0.85,2.45,1.274,5.184,1.274,8.204c0,3.045-0.425,5.787-1.274,8.222
			c-0.852,2.437-2.076,4.518-3.675,6.244c-1.599,1.726-3.526,3.052-5.786,3.979c-2.259,0.925-4.797,1.39-7.613,1.39
			c-2.843,0-5.4-0.464-7.671-1.39c-2.271-0.926-4.206-2.252-5.805-3.979c-1.599-1.726-2.824-3.807-3.675-6.244
			c-0.851-2.436-1.274-5.177-1.274-8.222c0-3.02,0.424-5.754,1.274-8.204c0.851-2.449,2.076-4.536,3.675-6.262
			s3.533-3.058,5.805-3.998C843.605,164.403,846.163,163.934,849.006,163.934z M849.006,198.347c3.807,0,6.648-1.275,8.526-3.826
			c1.88-2.55,2.818-6.109,2.818-10.677c0-4.594-0.938-8.172-2.818-10.736c-1.878-2.563-4.72-3.845-8.526-3.845
			c-1.93,0-3.611,0.33-5.044,0.99c-1.435,0.661-2.627,1.612-3.578,2.855c-0.952,1.244-1.663,2.773-2.133,4.587
			c-0.47,1.815-0.704,3.865-0.704,6.149c0,4.568,0.946,8.127,2.837,10.677C842.273,197.071,845.147,198.347,849.006,198.347z"/>
		<path fill="#C4C4C4" d="M908.277,166.065v2.512c0,0.838-0.533,1.371-1.598,1.6l-4.379,0.571c0.862,1.675,1.294,3.528,1.294,5.557
			c0,1.879-0.361,3.586-1.085,5.121c-0.723,1.536-1.72,2.849-2.988,3.94s-2.792,1.929-4.568,2.512
			c-1.776,0.584-3.705,0.876-5.785,0.876c-1.804,0-3.503-0.215-5.102-0.647c-0.812,0.508-1.434,1.047-1.866,1.618
			c-0.432,0.57-0.647,1.148-0.647,1.732c0,0.914,0.375,1.605,1.123,2.074c0.749,0.471,1.733,0.807,2.951,1.009
			c1.219,0.204,2.607,0.331,4.168,0.381c1.561,0.051,3.16,0.134,4.797,0.248c1.637,0.114,3.235,0.311,4.797,0.59
			c1.561,0.279,2.951,0.736,4.169,1.371s2.201,1.51,2.95,2.627c0.748,1.117,1.122,2.563,1.122,4.34c0,1.649-0.413,3.248-1.237,4.796
			c-0.824,1.547-2.012,2.924-3.559,4.13c-1.548,1.205-3.445,2.17-5.691,2.894S892.364,217,889.548,217s-5.279-0.279-7.385-0.837
			c-2.106-0.559-3.858-1.308-5.254-2.246c-1.396-0.939-2.443-2.024-3.14-3.255c-0.7-1.231-1.048-2.519-1.048-3.864
			c0-1.903,0.597-3.515,1.789-4.834c1.192-1.32,2.829-2.373,4.911-3.16c-1.142-0.507-2.05-1.186-2.722-2.037
			c-0.673-0.85-1.009-1.998-1.009-3.445c0-0.558,0.102-1.136,0.305-1.732s0.514-1.193,0.933-1.79
			c0.419-0.596,0.932-1.161,1.542-1.694c0.608-0.533,1.319-1.002,2.131-1.408c-1.902-1.066-3.389-2.481-4.454-4.245
			c-1.065-1.764-1.599-3.813-1.599-6.149c0-1.877,0.362-3.584,1.085-5.119c0.725-1.536,1.733-2.842,3.026-3.922
			c1.295-1.078,2.837-1.909,4.626-2.493s3.749-0.876,5.882-0.876c1.675,0,3.236,0.184,4.683,0.552
			c1.446,0.368,2.765,0.908,3.959,1.618H908.277z M901.388,205.199c0-0.939-0.267-1.701-0.8-2.284
			c-0.533-0.583-1.25-1.041-2.15-1.371c-0.901-0.33-1.948-0.564-3.141-0.705c-1.194-0.139-2.455-0.247-3.788-0.323
			s-2.683-0.152-4.055-0.229c-1.37-0.076-2.689-0.203-3.959-0.38c-1.422,0.66-2.582,1.491-3.483,2.493s-1.352,2.175-1.352,3.521
			c0,0.862,0.223,1.668,0.666,2.417c0.443,0.748,1.123,1.396,2.037,1.941c0.914,0.545,2.062,0.977,3.446,1.294
			c1.382,0.317,3.013,0.475,4.891,0.475c1.827,0,3.464-0.165,4.91-0.494c1.446-0.331,2.671-0.8,3.675-1.409
			c1.002-0.609,1.77-1.332,2.303-2.17C901.121,207.141,901.388,206.214,901.388,205.199z M889.168,184.262
			c1.369,0,2.576-0.19,3.615-0.571c1.041-0.381,1.917-0.913,2.628-1.599c0.71-0.685,1.243-1.503,1.599-2.455
			c0.355-0.952,0.533-1.999,0.533-3.141c0-2.36-0.719-4.238-2.151-5.634c-1.435-1.396-3.51-2.094-6.224-2.094
			c-2.742,0-4.829,0.699-6.264,2.094c-1.434,1.396-2.15,3.274-2.15,5.634c0,1.142,0.184,2.188,0.553,3.141
			c0.367,0.952,0.906,1.771,1.618,2.455c0.71,0.686,1.586,1.218,2.626,1.599S887.797,184.262,889.168,184.262z"/>
		<path fill="#C4C4C4" d="M948.59,164.542l-21.508,49.945c-0.228,0.507-0.514,0.913-0.856,1.218
			c-0.342,0.305-0.87,0.457-1.579,0.457h-5.025l7.043-15.303l-15.914-36.317h5.863c0.583,0,1.047,0.146,1.39,0.438
			c0.342,0.292,0.576,0.615,0.704,0.971l10.316,24.287c0.406,1.066,0.748,2.183,1.028,3.35c0.354-1.192,0.735-2.322,1.141-3.388
			l10.013-24.25c0.152-0.405,0.412-0.742,0.78-1.009c0.367-0.267,0.78-0.399,1.237-0.399H948.59z"/>
	</g>
	<rect fill="#FC5A5F" width="217" height="217"/>
	<rect x="75.95" y="103.075" fill="#003CFF" width="65.1" height="10.85"/>
	<rect x="65.1" y="54.25" fill="#FFFFFF" width="10.85" height="108.5"/>
	<rect x="75.95" y="103.075" fill="#FFFFFF" width="65.1" height="10.85"/>
	<rect x="141.05" y="54.25" fill="#FFFFFF" width="10.85" height="108.5"/>
</g>
</svg>
