<?xml version="1.0" standalone="no"?>
<!DOCTYPE svg PUBLIC "-//W3C//DTD SVG 20010904//EN"
 "http://www.w3.org/TR/2001/REC-SVG-20010904/DTD/svg10.dtd">
<svg version="1.0" xmlns="http://www.w3.org/2000/svg"
 width="363.000000pt" height="363.000000pt" viewBox="0 0 363.000000 363.000000"
 preserveAspectRatio="xMidYMid meet">
<metadata>
Created by potrace 1.11, written by Peter Selinger 2001-2013
</metadata>
<g transform="translate(0.000000,363.000000) scale(0.100000,-0.100000)"
fill="#000000" stroke="none">
<path d="M1637 3623 c-3 -5 -3 -28 -2 -53 2 -25 6 -126 10 -225 4 -99 8 -191
9 -205 1 -23 5 -25 49 -26 l47 -1 0 84 c0 59 4 83 13 84 80 6 114 15 148 39
89 64 76 240 -21 292 -27 14 -57 18 -142 18 -59 0 -109 -3 -111 -7z m217 -98
c24 -18 33 -93 13 -119 -14 -19 -97 -38 -115 -27 -5 3 -10 41 -11 84 l-2 77
48 0 c26 0 56 -7 67 -15z"/>
<path d="M2116 3363 c-42 -135 -76 -246 -74 -248 2 -2 63 -22 137 -45 74 -23
140 -44 148 -47 12 -5 20 9 37 63 6 20 -2 24 -97 55 l-104 34 19 61 18 62 75
-24 c42 -13 82 -24 89 -24 8 0 18 18 24 41 12 46 17 41 -93 75 -33 10 -62 19
-64 20 -9 7 32 105 43 101 59 -22 189 -58 193 -53 11 11 31 76 24 80 -3 2 -67
22 -141 45 -74 23 -140 44 -146 46 -7 2 -42 -96 -88 -242z"/>
<path d="M1353 3571 c-24 -9 -43 -20 -43 -26 0 -6 25 -82 55 -170 30 -87 55
-166 55 -175 0 -26 -48 -69 -85 -76 -74 -14 -83 -1 -157 215 -27 80 -50 147
-52 148 -1 2 -23 -4 -49 -13 l-46 -15 60 -172 c32 -95 67 -183 77 -197 10 -14
38 -35 63 -48 117 -62 290 35 289 163 0 24 -113 374 -122 380 -2 0 -22 -6 -45
-14z"/>
<path d="M2605 3224 c-66 -86 -128 -165 -139 -177 -51 -60 -52 -65 -15 -97 19
-16 36 -29 39 -30 3 0 27 29 54 65 40 52 52 62 66 55 15 -8 17 -24 15 -117
l-3 -108 41 -32 c23 -17 44 -30 46 -27 3 2 6 46 7 97 1 50 3 99 3 108 1 10 10
15 30 13 45 -3 107 30 140 76 53 74 53 145 -2 206 -33 38 -140 124 -154 124
-4 -1 -62 -71 -128 -156z m194 -8 c51 -46 43 -109 -18 -140 -25 -14 -32 -13
-70 6 -24 12 -45 27 -48 34 -7 18 86 135 101 127 6 -3 22 -15 35 -27z"/>
<path d="M776 3320 c-63 -20 -101 -80 -93 -149 8 -69 43 -93 175 -121 113 -24
132 -32 132 -59 0 -37 -26 -55 -76 -56 l-48 0 -13 -44 c-7 -25 -12 -46 -10
-47 1 -1 26 -5 54 -8 105 -13 193 57 193 152 0 86 -46 126 -175 152 -117 23
-135 30 -135 50 0 24 29 41 57 34 17 -5 24 2 38 40 10 26 16 48 14 51 -10 10
-86 13 -113 5z"/>
<path d="M468 2913 c-169 -175 -309 -423 -372 -663 -43 -161 -54 -261 -51
-440 4 -237 44 -413 141 -619 l44 -93 18 23 c19 22 19 24 -18 103 -239 514
-154 1147 214 1581 28 33 53 62 56 65 50 49 62 70 50 85 -7 8 -15 15 -19 15
-4 0 -32 -26 -63 -57z"/>
<path d="M3078 2953 c-16 -15 -12 -22 57 -96 198 -213 343 -515 382 -793 10
-73 11 -349 1 -427 -17 -132 -71 -312 -129 -431 -28 -56 -29 -60 -13 -84 l16
-24 22 38 c80 143 144 358 163 549 39 389 -68 776 -303 1090 -58 78 -162 195
-173 195 -4 0 -14 -7 -23 -17z"/>
<path d="M635 2812 c-33 -27 -128 -143 -174 -211 -55 -80 -133 -238 -159 -321
-60 -188 -72 -271 -67 -475 3 -144 7 -187 20 -235 2 -8 7 -30 10 -48 14 -83
115 -332 134 -332 5 0 14 7 19 16 7 12 0 37 -23 88 -110 240 -146 538 -95 796
17 84 20 93 41 159 63 191 179 380 321 525 22 22 26 32 17 42 -14 18 -19 17
-44 -4z"/>
<path d="M2950 2815 c-10 -13 -3 -25 48 -79 159 -171 275 -398 327 -642 24
-108 28 -333 10 -454 -18 -115 -55 -239 -102 -342 -29 -64 -33 -80 -23 -93 7
-8 16 -15 20 -15 9 0 81 162 104 235 18 58 42 161 52 225 10 68 12 284 3 343
-5 29 -11 70 -14 92 -3 22 -8 48 -11 57 -3 9 -6 25 -8 35 -18 93 -95 269 -172
393 -51 83 -188 250 -210 257 -6 2 -17 -3 -24 -12z"/>
<path d="M1231 2807 c-22 -10 -23 -14 -17 -82 3 -38 8 -79 10 -90 2 -11 7 -54
10 -95 6 -62 10 -98 15 -118 2 -6 81 42 82 50 4 25 3 40 -7 116 l-11 82 26
-16 c14 -9 35 -24 46 -34 11 -9 37 -29 58 -42 l38 -26 40 22 c21 11 37 25 36
31 -5 13 -279 215 -292 214 -5 0 -21 -5 -34 -12z"/>
<path d="M2220 2715 c-80 -58 -143 -109 -141 -113 2 -4 21 -17 43 -29 l39 -22
77 58 c42 32 79 57 80 56 2 -2 -1 -44 -7 -95 -7 -50 -9 -95 -6 -99 8 -13 85
-52 86 -43 0 4 2 14 3 22 2 8 7 51 10 95 7 80 9 96 21 192 6 46 4 53 -17 67
-12 9 -27 16 -33 16 -6 0 -75 -47 -155 -105z"/>
<path d="M708 2632 c-207 -241 -309 -519 -302 -824 1 -65 8 -142 14 -171 6
-29 13 -65 15 -79 9 -50 56 -180 86 -239 27 -55 32 -59 43 -43 11 15 9 27 -14
78 -92 202 -124 442 -90 661 34 222 156 466 308 621 31 31 38 44 29 53 -19 19
-30 12 -89 -57z"/>
<path d="M2825 2690 c-4 -6 16 -36 45 -66 316 -347 399 -848 208 -1266 -26
-57 -29 -70 -17 -84 11 -14 16 -9 41 41 16 30 39 86 52 123 146 417 52 877
-249 1210 -46 51 -67 62 -80 42z"/>
<path d="M1988 2598 c-42 -65 -45 -56 59 -184 53 -66 129 -160 169 -211 41
-50 77 -94 81 -96 5 -3 18 15 31 39 l22 44 -107 132 c-59 73 -136 169 -171
213 -36 44 -66 81 -67 83 -1 1 -9 -8 -17 -20z"/>
<path d="M1650 2460 c-25 -4 -65 -11 -90 -15 -25 -3 -115 -18 -200 -32 -85
-14 -161 -26 -167 -26 -18 0 -16 -15 8 -53 23 -37 33 -40 120 -24 30 5 68 11
84 14 33 5 50 8 234 37 69 11 127 21 129 23 2 3 -7 23 -20 45 -24 43 -26 43
-98 31z"/>
<path d="M1678 2305 c-21 -11 -39 -23 -41 -26 -3 -2 1 -47 8 -99 7 -52 12 -96
11 -97 -1 -1 -37 24 -81 57 -75 54 -82 57 -105 45 -72 -38 -76 -32 85 -149
143 -105 148 -107 177 -95 l30 12 -7 91 c-3 49 -8 92 -10 96 -1 3 -6 43 -10
90 -4 47 -10 88 -13 91 -4 3 -24 -4 -44 -16z"/>
<path d="M1905 2263 c-4 -38 -8 -79 -10 -93 -2 -14 -6 -54 -10 -90 -3 -36 -8
-77 -10 -92 -2 -20 3 -31 21 -42 13 -9 28 -16 33 -16 17 0 302 213 294 220 -4
4 -24 17 -44 28 l-36 22 -44 -33 c-24 -18 -61 -46 -82 -62 l-39 -29 6 35 c3
19 8 64 12 101 l6 66 -41 26 c-22 14 -42 26 -45 26 -2 0 -7 -30 -11 -67z"/>
<path d="M1176 1988 c-19 -51 -64 -168 -99 -260 l-65 -168 52 0 51 0 94 248
c52 136 97 253 99 260 3 8 -10 12 -46 12 l-50 0 -36 -92z"/>
<path d="M2393 1820 l-100 -260 52 0 52 0 32 88 c18 48 38 101 45 117 21 49
116 301 116 308 0 4 -22 7 -48 7 l-49 0 -100 -260z"/>
<path d="M970 1992 c-19 -10 -64 -30 -100 -46 -203 -89 -195 -85 -194 -117 1
-36 5 -40 69 -67 28 -11 101 -44 163 -71 l112 -50 0 53 0 53 -90 38 c-50 21
-88 40 -85 43 2 3 42 21 87 41 l83 37 3 52 c2 29 -1 52 -5 52 -4 -1 -24 -9
-43 -18z"/>
<path d="M1332 1958 l3 -52 82 -36 c45 -19 84 -38 88 -41 3 -3 -30 -21 -72
-39 -43 -19 -84 -38 -90 -43 -12 -8 -19 -107 -9 -107 2 0 26 11 53 24 26 13
98 45 158 71 61 27 114 52 119 56 6 5 11 22 12 37 2 23 -4 32 -29 44 -45 23
-306 138 -313 138 -3 0 -4 -23 -2 -52z"/>
<path d="M2126 1936 c-161 -73 -181 -89 -167 -129 4 -11 35 -31 71 -47 36 -15
111 -48 168 -73 l102 -46 0 54 0 53 -90 38 c-49 21 -87 41 -82 45 4 3 44 21
89 40 l83 34 0 53 c0 28 -3 52 -7 51 -5 -1 -80 -33 -167 -73z"/>
<path d="M2613 1959 l0 -51 46 -20 c25 -10 59 -26 75 -34 16 -8 35 -14 43 -14
32 0 6 -20 -75 -57 l-88 -40 -1 -47 c-1 -28 4 -46 11 -46 6 0 84 32 173 72
l161 71 -3 34 c-2 19 -5 36 -7 37 -5 4 -328 146 -332 146 -2 0 -3 -23 -3 -51z"/>
<path d="M1556 1624 c-80 -58 -146 -109 -146 -113 0 -3 19 -16 42 -29 l42 -22
35 25 c20 14 58 42 85 62 38 29 47 33 43 17 -3 -10 -9 -48 -12 -84 -3 -36 -8
-73 -11 -82 -3 -12 9 -25 41 -44 25 -14 47 -25 49 -23 2 2 7 40 11 84 3 44 8
91 10 105 8 55 18 160 16 176 -1 9 -42 34 -55 34 -2 0 -70 -48 -150 -106z"/>
<path d="M1897 1714 c-19 -10 -26 -21 -23 -32 3 -9 8 -51 11 -92 4 -41 8 -88
10 -105 3 -16 7 -57 10 -90 3 -33 7 -61 9 -62 2 -2 22 7 45 19 l42 23 -6 75
c-3 41 -8 88 -11 104 l-5 29 38 -28 c21 -16 58 -44 82 -62 l43 -32 38 19 c21
11 41 23 44 28 4 8 -262 209 -288 218 -6 2 -24 -4 -39 -12z"/>
<path d="M1311 1515 c-26 -44 -26 -46 0 -76 11 -13 89 -108 171 -212 83 -103
153 -185 156 -182 3 3 15 22 28 42 l22 37 -51 66 c-29 36 -62 76 -74 90 -11
14 -65 79 -118 145 -53 66 -100 121 -105 123 -4 2 -17 -13 -29 -33z"/>
<path d="M2349 1356 c-2 -2 -24 -7 -49 -11 -42 -6 -67 -10 -130 -20 -27 -4
-150 -24 -190 -30 -86 -13 -110 -17 -110 -21 0 -17 43 -84 54 -84 8 0 96 14
197 30 203 34 212 36 287 46 28 4 52 9 52 12 0 2 -10 22 -22 43 -18 32 -27 39
-53 39 -17 0 -34 -2 -36 -4z"/>
<path d="M1249 1237 c-3 -8 -8 -48 -14 -110 -4 -39 -8 -83 -10 -97 -18 -150
-18 -161 1 -175 11 -8 26 -15 34 -15 9 0 82 49 163 108 l146 108 -47 26 -47
25 -55 -42 c-30 -23 -67 -49 -81 -58 l-26 -17 8 57 c19 151 21 140 -27 167
-24 14 -44 24 -45 23z"/>
<path d="M2345 1216 c-45 -26 -45 -26 -31 -154 l7 -73 -81 60 -82 59 -43 -26
c-24 -14 -42 -28 -39 -31 2 -3 70 -53 151 -111 l146 -107 29 16 c26 15 27 20
23 64 -3 26 -7 71 -10 100 -16 159 -23 218 -27 222 -2 2 -21 -7 -43 -19z"/>
<path d="M2922 1122 l-31 -38 97 -77 c53 -42 106 -83 117 -91 l20 -15 -20 -1
c-11 -1 -27 -3 -35 -4 -8 -2 -64 -6 -125 -10 -60 -4 -130 -9 -155 -11 -25 -3
-62 -5 -83 -6 -47 -3 -63 13 192 -188 l203 -161 29 36 c16 20 29 40 29 43 -1
3 -50 44 -110 91 -61 46 -110 87 -110 91 0 3 24 7 53 8 28 1 70 4 92 6 48 4
241 18 273 18 12 1 21 4 20 8 -3 7 -417 339 -423 339 -2 0 -17 -17 -33 -38z"/>
<path d="M585 1102 c-28 -26 -88 -81 -134 -122 -46 -41 -108 -98 -138 -125
l-54 -50 33 -38 33 -38 35 32 c19 18 46 43 60 56 l26 23 47 -45 c72 -67 156
-74 226 -17 83 67 100 163 42 238 -32 42 -115 134 -121 134 -3 0 -28 -22 -55
-48z m91 -127 c36 -48 34 -82 -6 -118 -41 -37 -82 -31 -123 15 l-29 33 58 52
c32 29 61 53 66 53 4 0 19 -16 34 -35z"/>
<path d="M860 791 c-78 -24 -131 -70 -165 -143 -101 -217 133 -446 346 -338
161 83 191 291 60 419 -60 59 -164 85 -241 62z m133 -107 c103 -54 122 -181
37 -258 -22 -20 -48 -37 -58 -38 -61 -5 -80 -4 -108 8 -92 38 -123 166 -59
242 49 59 126 77 188 46z"/>
<path d="M2562 745 c-118 -35 -187 -127 -187 -250 0 -103 48 -184 138 -232 45
-25 179 -25 228 0 84 42 136 123 143 219 12 171 -159 311 -322 263z m157 -122
c42 -32 65 -70 67 -115 4 -94 -64 -168 -156 -168 -105 0 -181 100 -151 200 31
102 156 145 240 83z"/>
<path d="M1302 571 c-70 -45 -71 -104 -4 -240 29 -57 52 -110 52 -117 0 -8
-10 -19 -23 -25 -31 -14 -74 3 -89 36 -6 14 -16 25 -21 25 -26 0 -87 -25 -87
-35 0 -19 55 -89 86 -110 43 -29 129 -27 173 4 35 25 61 74 61 114 0 13 -22
70 -50 126 -27 56 -50 111 -50 122 0 29 45 25 65 -5 16 -24 17 -24 61 -9 24 8
44 17 44 19 0 14 -31 62 -54 83 -37 34 -118 40 -164 12z"/>
<path d="M2178 578 c-21 -6 -38 -16 -38 -23 0 -7 30 -107 66 -222 37 -114 69
-218 71 -231 3 -12 9 -24 13 -27 9 -5 70 13 84 25 10 10 -139 491 -152 489 -4
-1 -24 -6 -44 -11z"/>
<path d="M2060 537 c-5 -4 -43 -8 -225 -24 -105 -9 -100 -6 -99 -44 1 -19 2
-39 3 -46 1 -8 19 -10 59 -7 31 3 62 6 67 8 6 2 12 -6 13 -18 0 -11 8 -95 17
-186 9 -90 17 -176 19 -190 2 -26 1 -26 89 -21 10 1 16 4 14 9 -3 4 -8 47 -12
97 -3 50 -8 104 -10 120 -2 17 -7 64 -11 105 -3 41 -7 79 -8 84 -1 9 14 13 84
19 l45 4 0 44 c-1 36 -4 45 -21 47 -11 2 -22 1 -24 -1z"/>
<path d="M1607 523 c-3 -4 -8 -35 -11 -68 -4 -33 -9 -71 -11 -85 -3 -23 -8
-62 -21 -170 -3 -25 -7 -56 -9 -70 -2 -14 -7 -47 -11 -74 -4 -30 -3 -47 3 -43
5 3 26 2 46 -3 42 -9 46 -5 52 47 3 21 7 52 9 68 16 109 48 386 45 389 -10 9
-87 17 -92 9z"/>
</g>
</svg>
